<?xml version="1.0" standalone="no"?>
<!DOCTYPE svg PUBLIC "-//W3C//DTD SVG 20010904//EN"
 "http://www.w3.org/TR/2001/REC-SVG-20010904/DTD/svg10.dtd">
<svg version="1.0" xmlns="http://www.w3.org/2000/svg"
 width="1.000000pt" height="2" viewBox="0 0 1890.000000 1700.000000"
 preserveAspectRatio="xMidYMid meet">

<g transform="translate(0.000000,1417.000000) scale(0.100000,-0.100000)"
fill="#d4d4d4" stroke="none">
<path d="M2960 10224 c-443 -28 -783 -116 -1155 -299 -557 -274 -1016 -728
-1296 -1282 -327 -650 -396 -1390 -194 -2094 299 -1039 1179 -1836 2240 -2028
197 -35 316 -45 530 -45 268 0 470 25 720 89 495 128 943 384 1309 750 763
760 1035 1876 711 2907 -91 288 -251 598 -436 844 -99 133 -132 170 -267 308
-396 402 -932 690 -1478 796 -199 38 -525 64 -684 54z m821 -288 c293 -80 531
-189 789 -362 182 -121 171 -110 135 -140 -79 -65 -276 -187 -422 -261 -89
-46 -168 -83 -175 -83 -7 0 -37 44 -67 98 -141 253 -343 533 -530 732 -38 41
-70 78 -71 81 0 11 207 -29 341 -65z m-1103 35 c-13 -16 -53 -62 -89 -102
-154 -172 -326 -415 -459 -651 -40 -71 -76 -128 -80 -128 -3 0 -81 37 -171 83
-147 73 -342 194 -424 262 -36 29 -48 17 143 145 217 145 457 259 709 335 115
35 327 83 371 84 l23 1 -23 -29z m302 -533 l0 -551 -94 6 c-142 9 -295 34
-456 73 -212 52 -201 37 -124 174 110 193 247 391 387 555 86 101 269 295 279
295 4 0 8 -248 8 -552z m513 210 c180 -216 434 -606 410 -629 -12 -11 -163
-54 -278 -77 -116 -25 -328 -52 -397 -52 l-48 0 0 548 1 547 113 -117 c62 -64
152 -163 199 -220z m-2077 -422 c138 -99 259 -170 421 -248 71 -34 130 -63
131 -64 2 -1 -23 -72 -57 -157 -62 -158 -110 -309 -156 -483 -52 -202 -104
-555 -105 -714 0 -41 -3 -85 -6 -97 l-6 -23 -619 0 -619 0 0 43 c0 60 18 217
35 322 91 533 349 1033 735 1423 91 93 103 102 119 90 10 -7 67 -48 127 -92z
m3579 2 c348 -366 576 -770 689 -1223 42 -170 76 -394 76 -507 l0 -58 -620 0
c-590 0 -620 1 -620 18 0 114 -39 455 -71 617 -52 261 -175 653 -254 805 l-14
27 172 86 c164 82 342 191 472 290 59 45 59 45 85 27 14 -10 52 -47 85 -82z
m-2788 -399 c44 -17 284 -77 354 -89 126 -21 295 -40 357 -40 l62 0 0 -630 0
-630 -570 0 -570 0 0 83 c0 75 20 282 35 374 56 333 127 584 246 869 32 77 38
81 86 63z m1806 -6 c3 -10 28 -74 57 -143 101 -245 180 -543 220 -820 20 -143
40 -398 33 -412 -2 -5 -260 -8 -574 -8 l-569 0 0 630 0 630 61 0 c149 0 430
47 624 105 132 39 141 40 148 18z m-2369 -1595 c3 -13 6 -54 6 -91 0 -172 53
-517 116 -757 39 -146 101 -331 161 -478 31 -73 54 -134 52 -136 -2 -2 -58
-30 -124 -63 -178 -89 -333 -187 -478 -302 l-77 -61 -112 113 c-459 457 -742
1069 -784 1695 l-7 102 621 0 620 0 6 -22z m1336 -601 l0 -623 -157 -17 c-191
-21 -361 -54 -519 -103 -66 -20 -125 -37 -133 -38 -15 -1 -44 63 -112 244
-120 319 -201 704 -216 1033 l-6 127 571 0 572 0 0 -623z m1345 586 c-2 -21
-7 -83 -10 -138 -17 -278 -77 -576 -176 -870 -39 -116 -119 -322 -134 -343 -1
-1 -14 2 -28 7 -152 58 -560 131 -729 131 l-68 0 0 625 0 625 575 0 575 0 -5
-37z m1435 -16 c0 -73 -24 -261 -50 -387 -99 -489 -343 -952 -697 -1319 l-119
-124 -59 48 c-106 86 -325 222 -484 301 -86 43 -158 78 -160 80 -2 2 17 52 42
111 146 350 236 723 272 1125 8 95 15 183 15 196 l0 22 620 0 620 0 0 -53z
m-2781 -1944 l0 -558 -115 120 c-144 150 -299 341 -413 510 -88 131 -207 333
-200 339 8 8 179 57 279 80 121 28 306 55 433 65 16 1 17 -32 16 -556z m419
542 c177 -20 487 -86 510 -110 9 -9 -29 -79 -133 -245 -146 -233 -323 -456
-509 -640 l-86 -85 0 548 0 547 43 0 c23 0 102 -7 175 -15z m872 -254 c165
-83 329 -185 449 -279 l23 -19 -88 -65 c-188 -137 -426 -264 -654 -348 -126
-46 -340 -103 -447 -120 -37 -6 -81 -13 -98 -17 -28 -5 -26 -2 35 63 211 225
420 512 564 776 55 102 33 101 216 9z m-2134 -73 c131 -232 299 -467 483 -675
92 -104 93 -102 -40 -78 -361 67 -733 225 -1044 443 -41 29 -75 56 -75 60 0 7
188 144 270 197 47 30 320 174 331 175 4 0 38 -55 75 -122z"/>
<path d="M13431 8060 c-180 -38 -277 -180 -241 -353 24 -118 103 -192 279
-261 182 -72 226 -103 241 -173 27 -114 -66 -193 -226 -193 -69 0 -186 20
-250 43 -55 20 -64 10 -64 -74 l0 -67 48 -16 c122 -40 327 -46 437 -12 171 52
261 217 212 387 -31 104 -107 163 -313 242 -166 64 -204 101 -204 198 0 44 4
55 33 84 19 19 52 38 78 45 58 16 180 7 259 -20 34 -12 69 -20 77 -18 8 2 26
31 39 65 l23 63 -27 14 c-80 41 -302 67 -401 46z"/>
<path d="M14731 8060 c-180 -38 -277 -180 -241 -353 24 -118 103 -192 279
-261 182 -72 226 -103 241 -173 27 -114 -66 -193 -226 -193 -69 0 -186 20
-250 43 -55 20 -64 10 -64 -74 l0 -67 48 -16 c122 -40 327 -46 437 -12 171 52
261 217 212 387 -31 104 -107 163 -313 242 -166 64 -204 101 -204 198 0 44 4
55 33 84 19 19 52 38 78 45 58 16 180 7 259 -20 34 -12 69 -20 77 -18 8 2 26
31 39 65 l23 63 -27 14 c-80 41 -302 67 -401 46z"/>
<path d="M6535 8038 c-3 -7 -4 -256 -3 -553 l3 -540 310 0 310 0 0 70 0 70
-232 3 -233 2 0 175 0 175 213 0 c152 0 216 3 225 12 7 7 12 35 12 63 0 28 -5
56 -12 63 -9 9 -73 12 -225 12 l-213 0 0 155 0 155 233 2 232 3 0 70 0 70
-308 3 c-241 2 -309 0 -312 -10z"/>
<path d="M7723 8034 c-7 -20 -7 -21 172 -295 l143 -220 -174 -273 c-114 -180
-172 -279 -168 -290 5 -13 21 -16 80 -16 l73 0 132 213 c72 116 136 217 143
224 8 8 44 -44 146 -213 l135 -224 80 3 c66 2 80 5 83 19 2 9 -74 138 -167
286 -94 149 -171 272 -171 276 0 3 72 115 160 249 110 167 158 250 154 261 -5
14 -19 16 -82 14 l-75 -3 -125 -198 c-100 -158 -128 -195 -137 -185 -7 7 -65
97 -130 201 l-117 187 -74 0 c-59 0 -76 -3 -81 -16z"/>
<path d="M9175 8038 c-3 -7 -4 -256 -3 -553 l3 -540 75 0 75 0 3 213 2 212 91
0 c213 0 366 67 428 189 29 56 42 146 32 217 -21 144 -104 224 -267 259 -91
19 -432 21 -439 3z m399 -153 c105 -27 141 -73 140 -175 -1 -141 -65 -187
-271 -197 l-113 -6 0 197 0 196 93 0 c51 0 119 -7 151 -15z"/>
<path d="M10545 8039 c-3 -8 -4 -257 -3 -554 l3 -540 75 0 75 0 3 223 2 222
98 0 97 0 129 -225 129 -225 77 0 c54 0 81 4 89 14 9 11 -17 61 -124 239 -74
124 -135 229 -135 234 0 4 25 23 55 41 92 56 139 145 138 262 -1 118 -32 186
-111 247 -74 56 -121 65 -369 70 -182 4 -224 3 -228 -8z m455 -167 c25 -12 53
-35 63 -51 39 -66 30 -172 -19 -230 -36 -43 -104 -61 -236 -61 l-108 0 0 186
0 186 128 -4 c105 -3 135 -7 172 -26z"/>
<path d="M11945 8038 c-3 -7 -4 -256 -3 -553 l3 -540 310 0 310 0 0 70 0 70
-232 3 -233 2 0 175 0 175 213 0 c152 0 216 3 225 12 7 7 12 35 12 63 0 28 -5
56 -12 63 -9 9 -73 12 -225 12 l-213 0 0 155 0 155 233 2 232 3 0 70 0 70
-308 3 c-241 2 -309 0 -312 -10z"/>
<path d="M16785 8038 c-3 -7 -4 -256 -3 -553 l3 -540 75 0 75 0 0 550 0 550
-73 3 c-52 2 -74 -1 -77 -10z"/>
<path d="M17542 8038 c-7 -7 -12 -35 -12 -63 0 -28 5 -56 12 -63 8 -8 60 -12
170 -12 l158 0 0 -468 c0 -351 3 -471 12 -480 16 -16 130 -16 146 0 9 9 12
129 12 480 l0 468 158 0 c110 0 162 4 170 12 7 7 12 35 12 63 0 28 -5 56 -12
63 -17 17 -809 17 -826 0z"/>
<path d="M15752 7428 c-13 -13 -16 -106 -4 -126 7 -9 53 -12 198 -10 l189 3 0
70 0 70 -185 3 c-136 2 -189 -1 -198 -10z"/>
</g>
</svg>
